Simulation
nRows=23
nColumns=15
endheader
time  TH_x TH_y TH_z SC_y  SC_z  SC_x  AC_y  AC_z  AC_x  GH_y  GH_z  GH_yy  EL_x  PS_y
0.0  0.000000  0.000000  0.000000  -21.55216662918163  7.487318525455192  16.40005847359666  56.727788262806605  10.842483516096474  3.569792940094756  40.49146885933974  58.70707147584464  -42.559319260470744  21.337299230184364  120.000000
0.04052287581699346  0.000000  0.000000  0.000000  -21.54182716930231  7.564333147316725  16.80420403160659  56.80191168948657  11.039438113777704  3.97709612719838  40.09454520451521  59.228871465189535  -43.72011196165514  23.40769289351913  120.000000
0.08104575163398692  0.000000  0.000000  0.000000  -21.537346550998688  7.5309494374411345  16.799565326976975  56.93476259415273  11.07066278378821  4.087771619990139  39.753169627895176  59.34319338592572  -44.83285826707903  25.267878225550906  120.000000
0.12156862745098038  0.000000  0.000000  0.000000  -21.480440987580266  7.376102577302399  16.54079086784141  57.074519530828795  11.086442614635654  4.017182419580103  39.47433129799711  59.15695292660269  -45.85211553989145  26.83851472669926  120.000000
0.16209150326797384  0.000000  0.000000  0.000000  -21.40466002445256  7.138562254475941  16.13950911149073  57.209634049325054  11.147317901332622  3.864058551389239  39.28969679955673  58.78402086580877  -46.75052020616089  28.10573942511708  120.000000
0.2026143790849673  0.000000  0.000000  0.000000  -21.317816979856474  6.859792684897991  15.682646035414306  57.32346000679191  11.274905449689006  3.6947295116805674  39.19670295648593  58.33036690120412  -47.51357856287979  29.077400009103975  120.000000
0.24313725490196075  0.000000  0.000000  0.000000  -21.239900458664145  6.590566673360331  15.227813654235362  57.40786268913311  11.45557262755494  3.555085131084312  39.18552663206092  57.879887387488424  -48.13462683321297  29.77768222927828  120.000000
0.28366013071895424  0.000000  0.000000  0.000000  -21.18044851144983  6.362656204617525  14.805528360915316  57.45993645884482  11.666378986756431  3.4649885639262568  39.234373488797154  57.49027942441535  -48.60910026366039  30.2364833740023  120.000000
0.32418300653594767  0.000000  0.000000  0.000000  -21.13599373341389  6.193702455305608  14.429846536665677  57.477516216731026  11.885283471888014  3.4299883948821637  39.31836678245921  57.19060101649148  -48.93322159846553  30.47763415415299  120.000000
0.3647058823529411  0.000000  0.000000  0.000000  -21.099724020285958  6.088450338305763  14.105200307888547  57.46190801948918  12.095776978823393  3.447448417678268  39.41590090249688  56.990659272250056  -49.10200762683022  30.521030830327327  120.000000
0.4052287581699346  0.000000  0.000000  0.000000  -21.063323730254883  6.04251210092223  13.832533461984946  57.41610570284635  12.28922731031271  3.509800553561241  39.50929123544696  56.88779275901053  -49.11103054673882  30.385514173048435  120.000000
0.4457516339869281  0.000000  0.000000  0.000000  -21.021499813090497  6.047834076285638  13.612992906001617  57.3444168112838  12.462357433765623  3.609213341070411  39.585648690708695  56.87360903870781  -48.95542830063461  30.087975364800396  120.000000
0.4862745098039215  0.000000  0.000000  0.000000  -20.972770116786723  6.095000051470215  13.449484575627714  57.252539801051014  12.615378308798414  3.7379424550156717  39.635387346003725  56.938593776425776  -48.63184722742637  29.6459409202695  120.000000
0.5267973856209149  0.000000  0.000000  0.000000  -20.919355693978847  6.175325447272511  13.347565209306847  57.14694433243974  12.749159851071612  3.8896379348999472  39.65132483683085  57.07437382450661  -48.13735913485434  29.077047622831167  120.000000
0.5673202614379085  0.000000  0.000000  0.000000  -20.866073115093588  6.281801250662282  13.31400436626235  57.03482298731707  12.8642171955365  4.0595839158626585  39.62807030718543  57.27496626535658  -47.47078776042479  28.399257824850554  120.000000
0.6078431372549019  0.000000  0.000000  0.000000  -20.81910728095791  6.409416701266589  13.354920531123591  56.923442320086835  12.960449432708998  4.245719217548825  39.56196713515215  57.53665848150158  -46.632077752194306  27.630644032359626  120.000000
0.6483660130718953  0.000000  0.000000  0.000000  -20.784744861532342  6.5554799646014965  13.474788639043364  56.82023272591334  13.03648074636019  4.448308890116767  39.45158967927453  57.85800887368819  -45.62333421959924  26.78892205558696  120.000000
0.6888888888888888  0.000000  0.000000  0.000000  -20.768405378237468  6.71949027128438  13.675950943468912  56.73250013356902  13.089185766851346  4.670009610371104  39.29832607459845  58.23917670084396  -44.44898775426108  25.891179557781346  120.000000
0.7294117647058822  0.000000  0.000000  0.000000  -20.77404864638578  6.90310712945065  13.957933473689957  56.66754106217667  13.113939680172983  4.915542097235091  39.106892348171286  58.681602680243095  -43.11657628198224  24.95355907130112  120.000000
0.7699346405228757  0.000000  0.000000  0.000000  -20.804114740668606  7.109850961138651  14.317396458045039  56.63230480585425  13.105300286351463  5.191703334021  38.88544936258883  59.18693399939344  -41.63637077431686  23.99140021532724  120.000000
0.8104575163398692  0.000000  0.000000  0.000000  -20.859725839774068  7.344566179007814  14.748316797945689  56.63337744480209  13.057896288398327  5.506642230662606  38.64529216965091  59.756419003177726  -40.02135467100088  23.019613034265852  120.000000
0.8509803921568626  0.000000  0.000000  0.000000  -20.941192328862563  7.612745157802964  15.24264303091224  56.67671191131804  12.967386508013785  5.869428273450852  38.40030466464306  60.38978455974172  -38.28727803500733  22.052967602653677  120.000000
0.8915032679738562  0.000000  0.000000  0.000000  -21.048269304628683  7.919780208197153  15.79072240121383  56.76742490885924  12.831391007561674  6.289110204101053  38.166111989552576  61.084613394375154  -36.453153587602955  21.106016387233876  120.000000
